<?xml version="1.0" standalone="no"?> <!DOCTYPE svg PUBLIC "-//W3C//DTD SVG 1.0//EN" "http://www.w3.org/TR/2001/REC-SVG-20010904/DTD/svg10.dtd" > <svg xmlns="http://www.w3.org/2000/svg" width="100%" height="100%">
<defs >
<font id="helveticaneueltstdmd" horiz-adv-x="947" ><font-face
    font-family="HelveticaNeueLT Std Med"
    units-per-em="2048"
    panose-1="2 11 6 4 2 2 2 2 2 4"
    ascent="1463"
    descent="-586"
    alphabetic="0" />
<missing-glyph horiz-adv-x="1024" d="M0 0V1434H1024V0H0ZM512 809L860 1331H164L512 809ZM573 717L922 195V1239L573 717ZM164 102H860L512 625L164 102ZM102 1239V195L451 717L102 1239Z" />
<glyph unicode=" " glyph-name="space" horiz-adv-x="569" />
<glyph unicode="!" glyph-name="exclam" horiz-adv-x="569" d="M158 1040V1462H414V1040L346 408H225L158 1040ZM147 0V256H422V0H147Z" />
<glyph unicode="&quot;" glyph-name="quotedbl" horiz-adv-x="909" d="M170 885V1462H379V885H170ZM530 885V1462H739V885H530Z" />
<glyph unicode="#" glyph-name="numbersign" horiz-adv-x="1138" d="M1014 584V430H819L758 0H594L653 430H428L367 0H203L262 430H70V584H285L322 850H129V1004H342L401 1434H567L506 1004H733L793 1434H958L897 1004H1073V850H877L840 584H1014ZM713 850H485L449
584H676L713 850Z" />
<glyph unicode="$" glyph-name="dollar" horiz-adv-x="1138" d="M618 627V150Q736 158 803 217T870 393Q870 438 856 473T819 532T761 575T694 605T618 627ZM35 444H268Q265 159 530 150V645Q465 663 418 679T312 722T213 782T138 859T84 964T66 1096Q66 1221
132 1314T302 1452T530 1497V1657H618V1497Q712 1497 792 1472T934 1399T1031 1274T1067 1098H834Q829 1204 777 1258T618 1313V881Q678 865 723 851T822 814T914 768T990 710T1051 635T1089 541T1104 426Q1104 314 1067 227T963 84T810 0T618 -35V-195H530V-35Q304
-30 168 95T35 444ZM530 903V1313Q299 1313 299 1112Q299 1064 318 1028T373 968T445 930T530 903Z" />
<glyph unicode="%" glyph-name="percent" horiz-adv-x="2048" d="M1628 -29T1538 -29T1381 3T1274 92T1215 220T1196 379Q1196 464 1216 536T1276 665T1384 754T1538 786T1692 754T1799 665T1860 536T1880 379Q1880 292 1861 221T1803 92T1696 3ZM1380 379Q1380
254 1417 179T1536 104Q1618 104 1657 179T1696 379Q1696 434 1689 480T1664 566T1615 630T1536 653Q1380 653 1380 379ZM600 647T510 647T353 679T246 767T187 896T168 1055Q168 1140 188 1212T248 1341T356 1430T510 1462T664 1430T771 1341T832 1212T852 1055Q852
968 833 896T775 768T668 679ZM352 1055Q352 930 389 855T508 780Q590 780 629 855T668 1055Q668 1110 661 1156T636 1242T587 1306T508 1329Q352 1329 352 1055ZM532 -49L1329 1483H1485L692 -49H532Z" />
<glyph unicode="&amp;" glyph-name="ampersand" horiz-adv-x="1327" d="M618 1323Q552 1323 508 1279T463 1161Q463 1127 478 1091T508 1033T554 972T596 918Q637 946 661 965T714 1013T755 1078T768 1155Q768 1228 727 1275T618 1323ZM811 319L524 676Q512 669
479 650T427 620T380 585T337 538T311 479T299 401Q299 286 364 221T535 156Q566 156 594 161T643 172T685 192T719 214T749 242T772 268T793 296T811 319ZM1069 0L936 164Q778 -29 526 -29Q321 -29 194 87T66 406Q66 658 401 829Q365 875 345 904T301 976T265
1061T254 1149Q254 1304 357 1400T612 1497Q709 1497 790 1459T924 1340T977 1147Q977 1027 904 933T713 776L940 502Q974 599 985 698H1190Q1166 481 1075 340L1356 0H1069Z" />
<glyph unicode="&apos;" glyph-name="quotesingle" horiz-adv-x="569" d="M180 885V1462H389V885H180Z" />
<glyph unicode="(" glyph-name="parenleft" horiz-adv-x="569" d="M586 -391H395Q255 -170 178 56T100 553Q100 797 176 1037T395 1497H586Q334 1047 334 553Q334 35 586 -391Z" />
<glyph unicode=")" glyph-name="parenright" horiz-adv-x="569" d="M-16 1497H174Q314 1274 391 1048T469 551Q469 307 393 67T174 -391H-16Q236 59 236 551Q236 1068 -16 1497Z" />
<glyph unicode="*" glyph-name="asterisk" horiz-adv-x="757" d="M266 1094L39 1171L84 1305L309 1217V1462H449V1217L672 1305L721 1171L487 1094L631 901L522 821L377 1022L238 821L123 901L266 1094Z" />
<glyph unicode="+" glyph-name="plus" horiz-adv-x="1228" d="M510 623V1036H719V623H1130V414H719V0H510V414H98V623H510Z" />
<glyph unicode="," glyph-name="comma" horiz-adv-x="569" d="M141 0V276H426V0Q425 -124 349 -211T150 -324V-199Q215 -182 250 -126T283 0H141Z" />
<glyph unicode="-" glyph-name="hyphen" horiz-adv-x="796" d="M100 446V668H696V446H100Z" />
<glyph unicode="." glyph-name="period" horiz-adv-x="569" d="M141 0V276H426V0H141Z" />
<glyph unicode="/" glyph-name="slash" horiz-adv-x="720" d="M-45 -35L543 1497H766L178 -35H-45Z" />
<glyph unicode="0" glyph-name="zero" horiz-adv-x="1138" d="M307 166T569 166T831 717T569 1268T307 717ZM569 1462Q669 1462 748 1430T881 1341T971 1212T1028 1054T1056 886T1065 717T1057 548T1029 380T972 221T881 93T749 3T569 -29Q470 -29 390 3T258 92T168
221T111 379T83 548T74 717T82 885T110 1053T167 1212T257 1340T390 1430T569 1462Z" />
<glyph unicode="1" glyph-name="one" horiz-adv-x="1138" d="M109 1012V1196Q185 1195 252 1208T377 1249T474 1324T526 1434H717V0H461V1012H109Z" />
<glyph unicode="2" glyph-name="two" horiz-adv-x="1138" d="M1059 209V0H80Q83 333 395 543Q428 567 490 608T591 676T678 745T756 823T805 910T827 1014Q828 1057 818 1097T783 1178T708 1243T586 1268Q519 1268 471 1241T396 1163T355 1051T340 909H106Q106
1070 162 1193T331 1389T600 1462Q701 1462 782 1434T914 1360T999 1256T1047 1139T1061 1022Q1061 940 1036 868T961 737T862 632T741 539Q707 516 644 475T545 408T466 349T398 280T360 209H1059Z" />
<glyph unicode="3" glyph-name="three" horiz-adv-x="1138" d="M467 666V840Q529 838 583 848T683 884T757 955T784 1065Q784 1155 721 1211T561 1268Q446 1268 383 1181T324 975H90Q99 1189 226 1325T565 1462Q650 1462 730 1438T875 1367T979 1246T1018 1079Q1018
969 967 889T815 772V768Q936 743 1005 646T1075 410Q1075 278 1005 177T820 24T567 -29Q325 -29 197 105T63 471H297Q292 336 363 251T567 166Q688 166 765 234T842 422Q842 487 820 534T764 607T678 647T578 665T467 666Z" />
<glyph unicode="4" glyph-name="four" horiz-adv-x="1138" d="M1069 524V340H885V0H664V340H49V571L664 1434H885V524H1069ZM659 1155L229 524H664V1155H659Z" />
<glyph unicode="5" glyph-name="five" horiz-adv-x="1138" d="M98 649L252 1434H993V1225H426L352 860L356 856Q403 907 475 936T621 965Q829 965 949 831T1069 485Q1069 414 1052 344T996 205T901 86T760 3T573 -29Q358 -29 219 85T72 408H305Q315 293 385 230T569
166Q709 166 772 252T836 481Q836 609 767 694T563 780Q380 780 332 649H98Z" />
<glyph unicode="6" glyph-name="six" horiz-adv-x="1138" d="M584 166Q665 166 723 209T809 319T836 465Q836 588 770 673T584 758Q462 758 394 674T326 465Q326 385 354 319T442 209T584 166ZM1042 1071H809Q801 1160 746 1214T600 1268Q547 1268 504 1250T433
1204T381 1133T346 1050T324 955T311 864T303 776L307 772Q354 855 436 898T616 942Q825 942 947 807T1069 461Q1069 249 937 110T592 -29Q489 -29 407 -3T269 73T173 188T111 341T80 520T70 721Q70 829 87 930T144 1129T244 1300T399 1417T610 1462Q784 1462 908
1353T1042 1071Z" />
<glyph unicode="7" glyph-name="seven" horiz-adv-x="1138" d="M72 1225V1434H1053V1239Q816 971 681 672T518 0H262Q284 327 433 645T815 1225H72Z" />
<glyph unicode="8" glyph-name="eight" horiz-adv-x="1138" d="M569 156Q689 156 765 227T842 422Q842 538 766 606T569 674Q450 674 374 606T297 422Q297 299 373 228T569 156ZM569 -29Q347 -29 205 93T63 422Q63 556 134 648T326 772V776Q229 813 176 890T123
1071Q123 1255 240 1358T569 1462Q782 1462 899 1359T1016 1071Q1016 967 963 890T813 776V772Q934 741 1004 649T1075 422Q1075 215 934 93T569 -29ZM569 1278Q472 1278 408 1220T344 1059Q344 960 407 904T569 848Q669 848 732 904T795 1059Q795 1161 731 1219T569
1278Z" />
<glyph unicode="9" glyph-name="nine" horiz-adv-x="1138" d="M553 1268Q432 1268 368 1184T303 975Q303 894 329 828T413 718T553 674Q677 674 745 761T813 975Q813 1098 745 1183T553 1268ZM96 362H330Q338 274 394 220T539 166Q592 166 635 184T706 229T757
301T792 383T815 478T828 569T836 657L831 662Q786 580 704 535T522 489Q319 489 195 621T70 973Q70 1187 202 1324T563 1462Q662 1462 741 1436T875 1360T968 1245T1028 1092T1059 914T1069 713Q1069 624 1057 539T1020 369T951 214T849 88T709 2T528 -29Q355
-29 231 80T96 362Z" />
<glyph unicode=":" glyph-name="colon" horiz-adv-x="569" d="M141 760V1036H426V760H141ZM141 0V276H426V0H141Z" />
<glyph unicode=";" glyph-name="semicolon" horiz-adv-x="569" d="M141 0V276H426V0Q425 -124 349 -211T150 -324V-199Q215 -182 250 -126T283 0H141ZM141 760V1036H426V760H141Z" />
<glyph unicode="&lt;" glyph-name="less" horiz-adv-x="1228" d="M1135 193V-16L94 444V592L1135 1053V844L369 518L1135 193Z" />
<glyph unicode="=" glyph-name="equal" horiz-adv-x="1228" d="M1130 829V621H98V829H1130ZM1130 416V207H98V416H1130Z" />
<glyph unicode="&gt;" glyph-name="greater" horiz-adv-x="1228" d="M94 193L860 518L94 844V1053L1135 592V444L94 -16V193Z" />
<glyph unicode="?" glyph-name="question" horiz-adv-x="1138" d="M334 997H100Q98 1223 232 1360T592 1497Q786 1497 912 1387T1038 1083Q1038 1028 1027 981T1002 904T959 840T913 790T858 743Q816 707 798 691T751 641T710 578T688 501T678 397H457Q457 514
475 591T525 715T616 813Q623 819 648 839T680 867T707 892T733 921T752 951T769 987T778 1027T782 1075Q782 1134 762 1180T709 1251T645 1290T582 1303Q459 1303 397 1222T334 997ZM426 0V256H700V0H426Z" />
<glyph unicode="@" glyph-name="at" horiz-adv-x="1638" d="M739 442Q816 442 882 502T984 646T1020 807Q1020 879 972 933T858 987Q797 987 743 953T653 865T596 750T575 629Q575 546 620 494T739 442ZM1260 1110L1112 571Q1067 430 1133 430Q1232 430 1315 560T1399
872Q1399 984 1356 1077T1238 1233T1064 1329T852 1364Q682 1364 547 1282T338 1060T264 750Q264 603 310 480T437 274T629 144T870 98Q1004 98 1126 152T1331 301H1475Q1376 143 1214 54T862 -35Q705 -35 565 23T323 185T160 437T100 758Q100 910 160 1047T322
1283T562 1439T852 1497Q1034 1497 1190 1422T1442 1207T1538 897Q1538 779 1504 676T1416 504T1297 384T1169 310T1055 287Q1004 287 971 317T934 406H930Q884 355 823 322T700 289Q574 289 488 383T401 610Q401 708 434 803T524 973T667 1094T850 1141Q1007 1141
1079 993L1116 1110H1260Z" />
<glyph unicode="A" glyph-name="A" horiz-adv-x="1366" d="M678 1210L457 582H903L684 1210H678ZM-14 0L547 1462H819L1382 0H1108L971 387H387L250 0H-14Z" />
<glyph unicode="B" glyph-name="B" horiz-adv-x="1441" d="M412 666V209H864Q981 209 1045 269T1110 440Q1110 548 1046 607T864 666H412ZM156 0V1462H866Q1068 1462 1184 1370T1300 1100Q1300 879 1092 788V784Q1224 755 1295 657T1366 408Q1366 225 1232 113T827
0H156ZM412 1253V850H829Q924 850 984 903T1044 1053Q1044 1160 991 1206T829 1253H412Z" />
<glyph unicode="C" glyph-name="C" horiz-adv-x="1478" d="M1399 997H1143Q1108 1132 1019 1210T778 1288Q665 1288 578 1241T438 1114T360 937T334 731T360 525T438 348T577 221T778 174Q942 174 1038 281T1151 557H1401Q1385 293 1214 129T778 -35Q618 -35 485
26T263 191T127 435T78 731T126 1027T263 1270T484 1436T778 1497Q1032 1495 1204 1362T1399 997Z" />
<glyph unicode="D" glyph-name="D" horiz-adv-x="1478" d="M412 1253V209H664Q781 209 868 236T1009 308T1094 421T1139 563T1151 731T1139 898T1095 1040T1009 1154T869 1226T664 1253H412ZM156 0V1462H762Q926 1462 1052 1405T1254 1247T1368 1016T1407 731Q1407
608 1384 500T1309 300T1184 141T1002 38T762 0H156Z" />
<glyph unicode="E" glyph-name="E" horiz-adv-x="1290" d="M156 0V1462H1208V1241H412V858H1149V649H412V221H1223V0H156Z" />
<glyph unicode="F" glyph-name="F" horiz-adv-x="1214" d="M156 0V1462H1165V1241H412V858H1073V649H412V0H156Z" />
<glyph unicode="G" glyph-name="G" horiz-adv-x="1554" d="M1432 770V0H1268L1229 172Q1128 57 1027 11T788 -35Q628 -35 495 26T273 191T137 435T88 731T136 1027T273 1270T494 1436T788 1497Q951 1497 1084 1442T1306 1272T1415 997H1165Q1153 1090 1098 1157T963
1256T788 1288Q675 1288 588 1241T448 1114T370 937T344 731T370 525T448 348T587 221T788 174Q982 171 1088 278T1198 575H809V770H1432Z" />
<glyph unicode="H" glyph-name="H" horiz-adv-x="1478" d="M150 0V1462H406V881H1071V1462H1327V0H1071V659H406V0H150Z" />
<glyph unicode="I" glyph-name="I" horiz-adv-x="569" d="M156 0V1462H412V0H156Z" />
<glyph unicode="J" glyph-name="J" horiz-adv-x="1099" d="M944 1462V471Q944 412 940 363T922 260T887 165T829 85T743 21T622 -20T463 -35Q350 -35 265 0T129 100T52 248T27 434V512H283V436Q283 304 327 239T483 174Q601 174 644 242T688 457V1462H944Z" />
<glyph unicode="K" glyph-name="K" horiz-adv-x="1402" d="M156 0V1462H412V797L1063 1462H1378L795 879L1419 0H1100L621 698L412 492V0H156Z" />
<glyph unicode="L" glyph-name="L" horiz-adv-x="1175" d="M156 0V1462H412V221H1155V0H156Z" />
<glyph unicode="M" glyph-name="M" horiz-adv-x="1820" d="M152 0V1462H512L915 317H920L1313 1462H1669V0H1425V1128H1421L1016 0H805L399 1128H395V0H152Z" />
<glyph unicode="N" glyph-name="N" horiz-adv-x="1478" d="M145 0V1462H416L1083 385H1087V1462H1331V0H1061L395 1075H389V0H145Z" />
<glyph unicode="O" glyph-name="O" horiz-adv-x="1556" d="M778 1497Q939 1497 1072 1436T1294 1271T1430 1027T1479 731T1431 435T1294 192T1073 26T778 -35Q618 -35 485 26T263 191T127 435T78 731T126 1027T263 1270T484 1436T778 1497ZM891 1288T778 1288T578
1241T438 1114T360 937T334 731T360 525T438 348T577 221T778 174Q869 174 944 205T1071 289T1156 414T1207 565T1223 731Q1223 840 1197 937T1119 1114T979 1241Z" />
<glyph unicode="P" glyph-name="P" horiz-adv-x="1366" d="M412 1253V770H786Q832 770 875 782T956 821T1018 896T1042 1012Q1042 1253 791 1253H412ZM156 0V1462H801Q921 1462 1012 1432T1157 1356T1243 1247T1287 1128T1298 1010T1287 893T1243 774T1157 666T1013
590T801 561H412V0H156Z" />
<glyph unicode="Q" glyph-name="Q" horiz-adv-x="1556" d="M942 209L795 338L918 479L1096 324Q1223 476 1223 731Q1223 840 1197 937T1119 1114T979 1241T778 1288T578 1241T438 1114T360 937T334 731T360 525T438 348T577 221T778 174Q871 174 942 209ZM1272
170L1460 6L1335 -133L1122 53Q966 -35 778 -35Q618 -35 485 26T263 191T127 435T78 731T126 1027T263 1270T484 1436T778 1497Q939 1497 1072 1436T1294 1271T1430 1027T1479 731Q1479 570 1428 420T1272 170Z" />
<glyph unicode="R" glyph-name="R" horiz-adv-x="1441" d="M412 1253V797H831Q953 797 1017 856T1081 1030Q1081 1097 1061 1143T1004 1212T924 1244T827 1253H412ZM156 0V1462H854Q1091 1462 1214 1359T1337 1067Q1337 988 1316 923T1267 821T1200 755T1140 716T1096
698V694Q1133 689 1167 673T1236 623T1292 528T1313 385Q1313 250 1333 146T1393 0H1118Q1100 29 1091 70T1081 138T1079 215Q1079 321 1067 389T1022 508T933 580T788 602H412V0H156Z" />
<glyph unicode="S" glyph-name="S" horiz-adv-x="1327" d="M68 487H324Q324 405 352 344T432 246T549 192T694 174Q775 174 837 192T934 243T987 314T1004 395Q1004 530 883 575Q837 592 778 609T617 651T446 696Q123 784 123 1067Q123 1173 169 1257T291 1392T461
1470T657 1497Q813 1497 938 1445T1141 1285T1219 1030H963Q945 1288 647 1288Q599 1288 555 1279T469 1249T404 1189T379 1098Q379 958 553 909Q557 908 650 884T842 833T975 797Q1067 769 1133 708T1229 575T1260 424Q1260 306 1211 215T1077 71T892 -8T678 -35Q550
-35 442 -4T251 90T119 253T68 487Z" />
<glyph unicode="T" glyph-name="T" horiz-adv-x="1214" d="M16 1241V1462H1200V1241H735V0H479V1241H16Z" />
<glyph unicode="U" glyph-name="U" horiz-adv-x="1478" d="M139 526V1462H395V610Q395 559 396 524T405 441T426 361T464 292T526 235T616 200T739 186T862 200T952 235T1013 292T1052 360T1072 441T1081 524T1083 610V1462H1339V526Q1339 252 1178 109T739 -35Q462
-35 301 108T139 526Z" />
<glyph unicode="V" glyph-name="V" horiz-adv-x="1251" d="M477 0L-10 1462H256L623 305H627L1001 1462H1262L762 0H477Z" />
<glyph unicode="W" glyph-name="W" horiz-adv-x="1933" d="M397 0L12 1462H272L537 344H541L836 1462H1098L1384 344H1389L1661 1462H1921L1518 0H1257L965 1118H961L662 0H397Z" />
<glyph unicode="X" glyph-name="X" horiz-adv-x="1327" d="M512 758L29 1462H334L666 946L1012 1462H1298L815 758L1333 0H1022L657 559L287 0H-6L512 758Z" />
<glyph unicode="Y" glyph-name="Y" horiz-adv-x="1327" d="M537 0V573L-12 1462H285L672 807L1053 1462H1339L793 573V0H537Z" />
<glyph unicode="Z" glyph-name="Z" horiz-adv-x="1290" d="M113 1241V1462H1225V1268L373 221H1245V0H47V209L899 1241H113Z" />
<glyph unicode="[" glyph-name="bracketleft" horiz-adv-x="606" d="M147 -391V1497H604V1313H369V-207H604V-391H147Z" />
<glyph unicode="\" glyph-name="backslash" horiz-adv-x="720" d="M178 1497L766 -35H543L-45 1497H178Z" />
<glyph unicode="]" glyph-name="bracketright" horiz-adv-x="606" d="M459 1497V-391H2V-207H238V1313H2V1497H459Z" />
<glyph unicode="^" glyph-name="asciicircum" horiz-adv-x="1228" d="M381 686H172L541 1434H688L1057 686H848L614 1192L381 686Z" />
<glyph unicode="_" glyph-name="underscore" horiz-adv-x="1024" d="M1024 -256H0V-154H1024V-256Z" />
<glyph unicode="`" glyph-name="grave" horiz-adv-x="493" d="M-59 1497H215L401 1204H231L-59 1497Z" />
<glyph unicode="a" glyph-name="a" horiz-adv-x="1138" d="M776 356V530Q744 509 700 498T586 480T489 467Q401 453 350 414T299 291Q299 254 320 226T376 184T445 163T514 156Q555 156 598 167T683 200T750 263T776 356ZM1010 780V236Q1010 192 1021 174T1065
156Q1098 156 1122 160V-2Q1043 -29 975 -29Q819 -29 795 100Q729 36 629 4T428 -29Q330 -29 250 4T118 110T66 281Q66 336 78 381T111 457T164 514T229 554T307 581T388 599T473 610Q506 616 554 622T631 632T694 645T746 667T778 703T791 760Q791 903 571 903Q469
903 407 861T338 735H104Q109 814 138 876T213 977T320 1041T447 1077T586 1087Q667 1087 740 1070T875 1018T973 922T1010 780Z" />
<glyph unicode="b" glyph-name="b" horiz-adv-x="1251" d="M944 528Q944 627 912 710T812 848T651 903Q507 903 431 803T354 528Q354 364 433 260T651 156Q713 156 763 177T846 233T902 317T934 418T944 528ZM129 0V1462H362V922H367Q413 997 501 1042T682 1087Q804
1087 900 1043T1056 922T1147 743T1178 524Q1178 415 1150 318T1068 142T924 17T721 -29Q442 -29 354 145H350V0H129Z" />
<glyph unicode="c" glyph-name="c" horiz-adv-x="1138" d="M1071 705H838Q824 800 760 851T596 903Q556 903 519 895T442 860T372 793T324 681T305 518Q305 449 321 387T369 272T457 188T586 156Q687 156 754 220T838 397H1071Q1039 191 914 81T586 -29Q424 -29
307 43T131 238T72 518Q72 639 105 742T202 922T366 1043T594 1087Q688 1087 769 1064T916 994T1022 874T1071 705Z" />
<glyph unicode="d" glyph-name="d" horiz-adv-x="1251" d="M305 518Q305 423 335 343T433 210T598 156Q673 156 732 188T825 274T877 393T895 530Q895 705 817 804T602 903Q538 903 487 881T403 823T347 736T315 632T305 518ZM1120 1462V0H899V143H895Q851 57
762 14T567 -29Q445 -29 350 14T194 135T103 314T72 537Q72 648 97 740T166 896T269 1003T393 1067T530 1087Q639 1087 735 1046T883 922H887V1462H1120Z" />
<glyph unicode="e" glyph-name="e" horiz-adv-x="1138" d="M1083 469H305Q305 383 334 314T430 201T590 156Q786 156 848 332H1069Q1032 162 900 67T590 -29Q428 -29 310 43T132 239T72 528Q72 680 133 806T312 1009T584 1087Q706 1087 808 1035T974 897T1068
699T1083 469ZM305 623H850Q844 738 771 820T584 903Q465 903 388 823T305 623Z" />
<glyph unicode="f" glyph-name="f" horiz-adv-x="645" d="M18 885V1059H193V1147Q193 1244 216 1309T283 1406T374 1450T485 1462Q597 1462 649 1448V1266Q603 1278 541 1278Q426 1278 426 1167V1059H625V885H426V0H193V885H18Z" />
<glyph unicode="g" glyph-name="g" horiz-adv-x="1214" d="M584 184Q658 184 715 216T804 301T852 418T868 553T852 685T802 796T713 874T584 903Q510 903 454 871T367 785T320 668T305 535Q305 467 321 406T371 295T459 214T584 184ZM1102 1059V55Q1102 -180
968 -300T582 -420Q497 -420 420 -403T274 -349T161 -246T109 -90H342Q362 -181 427 -213T596 -246Q868 -246 868 25V186H864Q815 99 731 50T547 0Q425 0 332 44T183 165T100 341T72 557Q72 701 128 820T294 1013T551 1087Q655 1087 738 1043T864 913H868V1059H1102Z"
/>
<glyph unicode="h" glyph-name="h" horiz-adv-x="1175" d="M123 0V1462H356V920H360Q405 994 490 1040T678 1087Q853 1087 953 995T1053 727V0H819V666Q816 789 766 846T612 903Q498 903 427 824T356 625V0H123Z" />
<glyph unicode="i" glyph-name="i" horiz-adv-x="493" d="M129 0V1059H362V0H129ZM129 1241V1462H362V1241H129Z" />
<glyph unicode="j" glyph-name="j" horiz-adv-x="493" d="M129 -80V1059H362V-90Q362 -254 291 -337T59 -420Q17 -420 -45 -412V-227Q25 -236 35 -236Q95 -236 112 -202T129 -80ZM129 1241V1462H362V1241H129Z" />
<glyph unicode="k" glyph-name="k" horiz-adv-x="1099" d="M129 0V1462H362V631L784 1059H1071L666 670L1110 0H825L502 514L362 379V0H129Z" />
<glyph unicode="l" glyph-name="l" horiz-adv-x="493" d="M129 0V1462H362V0H129Z" />
<glyph unicode="m" glyph-name="m" horiz-adv-x="1781" d="M123 0V1059H344V911H350Q388 968 428 1004T532 1064T676 1087Q778 1087 858 1043T973 911Q1035 997 1114 1042T1305 1087Q1479 1087 1569 1003T1659 731V0H1425V618Q1425 678 1423 713T1410 790T1379
852T1323 888T1233 903Q1008 903 1008 621V0H774V680Q774 794 732 848T588 903Q492 903 424 829T356 629V0H123Z" />
<glyph unicode="n" glyph-name="n" horiz-adv-x="1175" d="M123 0V1059H344V903L348 899Q401 987 487 1037T678 1087Q853 1087 953 995T1053 727V0H819V666Q816 789 766 846T612 903Q498 903 427 824T356 625V0H123Z" />
<glyph unicode="o" glyph-name="o" horiz-adv-x="1214" d="M547 156T608 156T719 177T804 235T863 319T898 420T909 530Q909 601 891 666T838 785T743 871T608 903T474 871T379 785T325 666T307 530Q307 474 318 421T353 319T411 235T496 178ZM858 -29T608 -29T216
126T74 530Q74 693 136 818T320 1015T608 1087Q858 1087 1000 933T1143 530Q1143 281 1001 126Z" />
<glyph unicode="p" glyph-name="p" horiz-adv-x="1251" d="M944 528Q944 627 912 710T812 848T651 903Q507 903 431 803T354 528Q354 364 433 260T651 156Q713 156 763 177T846 233T902 317T934 418T944 528ZM129 -391V1059H350V915H354Q401 1002 488 1044T682
1087Q804 1087 900 1043T1056 922T1147 743T1178 524Q1178 415 1150 318T1068 142T924 17T721 -29Q612 -29 516 12T367 137H362V-391H129Z" />
<glyph unicode="q" glyph-name="q" horiz-adv-x="1251" d="M305 528Q305 471 315 419T347 318T402 234T486 177T598 156Q746 156 820 256T895 528Q895 704 819 803T598 903Q506 903 438 849T338 711T305 528ZM1120 1059V-391H887V137H883Q830 54 734 13T528 -29Q415
-29 326 17T182 141T100 317T72 524Q72 642 103 743T193 921T349 1043T567 1087Q674 1087 761 1045T895 915H899V1059H1120Z" />
<glyph unicode="r" glyph-name="r" horiz-adv-x="720" d="M123 0V1059H342V854H346Q367 942 459 1014T655 1087Q683 1087 743 1081V856Q663 866 643 866Q518 866 437 770T356 504V0H123Z" />
<glyph unicode="s" glyph-name="s" horiz-adv-x="1062" d="M66 340H299Q308 244 373 200T539 156Q579 156 615 161T690 179T753 222T774 295Q773 321 763 341T732 377T690 403T633 424T571 440T500 455T428 471Q369 484 326 497T235 535T157 591T108 672T88 784Q88
867 129 928T238 1023T379 1071T530 1087Q597 1087 657 1076T771 1040T867 978T937 886T973 762H729Q703 903 514 903Q484 903 455 899T393 884T342 850T322 795Q322 771 331 752T361 718T402 693T459 672T522 656T594 641T666 625Q725 612 768 598T859 559T937
503T988 424T1008 315Q1008 225 966 156T853 48T702 -10T535 -29Q326 -29 198 65T66 340Z" />
<glyph unicode="t" glyph-name="t" horiz-adv-x="681" d="M16 885V1059H193V1376H426V1059H637V885H426V319Q426 238 446 206T539 174Q604 174 637 182V2Q620 1 590 -2T534 -8T485 -10Q395 -10 338 6T249 60T207 143T193 260V885H16Z" />
<glyph unicode="u" glyph-name="u" horiz-adv-x="1175" d="M1053 1059V0H823V147H819Q777 69 692 20T518 -29Q314 -29 219 74T123 387V1059H356V410Q356 275 407 216T559 156Q819 156 819 444V1059H1053Z" />
<glyph unicode="v" glyph-name="v" horiz-adv-x="1062" d="M403 0L18 1059H272L541 246H545L803 1059H1044L666 0H403Z" />
<glyph unicode="w" glyph-name="w" horiz-adv-x="1593" d="M354 0L27 1059H274L481 268H485L684 1059H920L1110 268H1114L1329 1059H1567L1235 0H995L799 786H795L600 0H354Z" />
<glyph unicode="x" glyph-name="x" horiz-adv-x="1099" d="M8 0L408 557L41 1059H324L545 733L776 1059H1047L686 569L1092 0H811L543 391L283 0H8Z" />
<glyph unicode="y" glyph-name="y" horiz-adv-x="1062" d="M408 4L6 1059H262L539 268H543L811 1059H1055L643 -57Q584 -205 558 -251Q489 -373 379 -405Q329 -420 268 -420Q187 -420 106 -408V-211Q192 -225 217 -225Q292 -225 324 -191T381 -78L408 4Z" />
<glyph unicode="z" glyph-name="z" horiz-adv-x="1024" d="M86 874V1059H946V895L340 184H977V0H45V164L631 874H86Z" />
<glyph unicode="{" glyph-name="braceleft" horiz-adv-x="606" d="M-8 461V645Q17 645 46 652T108 674T162 721T184 795V1217Q184 1285 212 1341T282 1429T367 1479T446 1497H633V1313H520Q483 1313 459 1300T424 1264T410 1219T406 1169V770Q405 712 382 669T322
603T255 570T193 555V551Q403 532 406 324V-63Q406 -91 409 -112T423 -157T458 -194T520 -207H633V-391H446Q411 -391 368 -374T282 -324T212 -235T184 -111V295Q184 342 163 376T109 428T47 453T-8 461Z" />
<glyph unicode="|" glyph-name="bar" horiz-adv-x="454" d="M123 -438V1610H332V-438H123Z" />
<glyph unicode="}" glyph-name="braceright" horiz-adv-x="606" d="M614 645V461Q589 461 560 454T498 432T444 385T422 311V-111Q422 -179 394 -235T324 -323T239 -373T160 -391H-27V-207H86Q123 -207 147 -194T183 -158T197 -113T201 -63V336Q202 394 225 437T284
503T352 536T414 551V555Q203 574 201 782V1169Q201 1197 198 1218T183 1263T148 1300T86 1313H-27V1497H160Q195 1497 238 1480T324 1430T394 1341T422 1217V811Q422 764 443 730T497 678T559 653T614 645Z" />
<glyph unicode="~" glyph-name="asciitilde" horiz-adv-x="1228" d="M1014 692L1087 520Q1064 488 1049 468T1008 422T958 381T901 355T831 344Q746 344 623 412Q496 483 387 483Q327 483 287 445T215 344L141 516Q233 692 397 692Q480 692 625 627Q638 621 669
607T716 586T756 570T799 557T834 553Q854 553 871 557T907 576T935 597T965 629T988 658T1014 692Z" />
</font>
</defs>
</svg>
